<?xml version="1.0" encoding="utf-8"?>
<!-- Generator: Adobe Illustrator 16.0.0, SVG Export Plug-In . SVG Version: 6.00 Build 0)  -->
<!DOCTYPE svg PUBLIC "-//W3C//DTD SVG 1.1//EN" "http://www.w3.org/Graphics/SVG/1.1/DTD/svg11.dtd">
<svg version="1.1" id="Layer_1" xmlns="http://www.w3.org/2000/svg" xmlns:xlink="http://www.w3.org/1999/xlink" x="0px" y="0px"
	 width="200px" height="200px" viewBox="0 0 200 200" enable-background="new 0 0 200 200" xml:space="preserve">
<g>
	<path fill="#00B588" d="M100,0C44.771,0,0,44.779,0,100c0,55.229,44.771,100,100,100s100-44.771,100-100
		C200,44.779,155.229,0,100,0z M100,187.5c-48.25,0-87.5-39.243-87.5-87.5c0-48.242,39.25-87.5,87.5-87.5s87.5,39.258,87.5,87.5
		C187.5,148.257,148.234,187.5,100,187.5z M143.795,60.231c-4.026-2.659-9.457-1.518-12.109,2.539l-42.202,64.483l-20.17-18.675
		c-3.554-3.275-9.09-3.065-12.372,0.488c-3.291,3.545-3.065,9.082,0.48,12.357l27.893,25.811c0.098,0.083,0.225,0.105,0.322,0.195
		c0.256,0.195,0.406,0.474,0.661,0.661c0.376,0.256,0.804,0.301,1.202,0.466c0.48,0.24,0.939,0.451,1.442,0.586
		c0.48,0.12,0.962,0.188,1.457,0.226c0.714,0.075,1.397,0.075,2.104-0.03c0.285-0.045,0.556-0.12,0.849-0.195
		c0.864-0.21,1.66-0.556,2.449-1.021c0.135-0.09,0.248-0.195,0.383-0.278c0.519-0.353,1.067-0.608,1.503-1.089
		c0.315-0.346,0.45-0.781,0.706-1.157c0.008-0.007,0.03-0.015,0.03-0.029l47.903-73.213C148.979,68.3,147.837,62.876,143.795,60.231
		z"/>
</g>
</svg>
