<?xml version="1.0" encoding="utf-8"?>
<!-- Generator: Adobe Illustrator 16.0.0, SVG Export Plug-In . SVG Version: 6.00 Build 0)  -->
<!DOCTYPE svg PUBLIC "-//W3C//DTD SVG 1.1//EN" "http://www.w3.org/Graphics/SVG/1.1/DTD/svg11.dtd">
<svg version="1.1" id="Layer_1" xmlns="http://www.w3.org/2000/svg" xmlns:xlink="http://www.w3.org/1999/xlink" x="0px" y="0px"
	 width="200px" height="200px" viewBox="0 0 200 200" enable-background="new 0 0 200 200" xml:space="preserve">
<g>
	<g>
		<path fill="#EB5A4F" d="M99.595,1C45.194,1,1.093,45.101,1.093,99.501C1.093,153.898,45.194,198,99.595,198
			c54.404,0,98.506-44.102,98.506-98.499C198.102,45.101,153.999,1,99.595,1z M99.595,184.873c-47.061,0-85.36-38.3-85.36-85.372
			c0-47.075,38.299-85.367,85.36-85.367c47.079,0,85.379,38.292,85.379,85.367C184.975,146.573,146.674,184.873,99.595,184.873z"/>
	</g>
	<path fill="#EB5A4F" d="M122.626,50.465H45.061c-3.063,0-5.55,2.486-5.55,5.542v55.403c0,3.062,2.486,5.535,5.55,5.535h77.565
		c3.048,0,5.534-2.473,5.534-5.535V56.008C128.16,52.952,125.674,50.465,122.626,50.465z M70.989,89.394l12.86,8.746l12.787-8.798
		l22.069,22.069h-69.73L70.989,89.394z M45.061,107.488V71.761L66.319,86.22L45.061,107.488z M101.268,86.146l21.358-14.695v36.039
		L101.268,86.146z M122.626,56.008v8.968l-0.119-0.177L83.819,91.436L45.061,65.072v-9.064H122.626z"/>
	<rect x="117" y="108.5" fill="#F1F2F2" width="12" height="12.5"/>
	<g>
		<path fill="#EB5A4F" d="M134.418,96.562c-17.345,0-31.408,14.06-31.408,31.411c0,17.344,14.063,31.411,31.408,31.411
			c17.357,0,31.411-14.067,31.411-31.411C165.829,110.622,151.775,96.562,134.418,96.562z M148.973,116.387l-11.662,11.66
			l10.334,11.514c0.812,0.819,0.812,2.148,0,2.961c-0.826,0.818-2.154,0.818-2.967,0l-10.334-11.506l-11.514,11.506
			c-0.812,0.818-2.141,0.818-2.967,0c-0.812-0.812-0.812-2.142,0-2.961l11.676-11.676l-10.332-11.498
			c-0.812-0.82-0.812-2.156,0-2.968c0.826-0.812,2.154-0.812,2.967,0l10.332,11.515l11.514-11.515c0.812-0.812,2.143-0.812,2.953,0
			C149.784,114.23,149.784,115.566,148.973,116.387z"/>
	</g>
</g>
</svg>
