<?xml version="1.0" encoding="utf-8"?>
<!-- Generator: Adobe Illustrator 16.0.0, SVG Export Plug-In . SVG Version: 6.00 Build 0)  -->
<!DOCTYPE svg PUBLIC "-//W3C//DTD SVG 1.1//EN" "http://www.w3.org/Graphics/SVG/1.1/DTD/svg11.dtd">
<svg version="1.1" id="Layer_1" xmlns="http://www.w3.org/2000/svg" xmlns:xlink="http://www.w3.org/1999/xlink" x="0px" y="0px"
	 width="200px" height="200px" viewBox="0 0 200 200" enable-background="new 0 0 200 200" xml:space="preserve">
<g>
	<g>
		<path fill="#00B588" d="M99.595,1C45.194,1,1.093,45.101,1.093,99.501C1.093,153.898,45.194,198,99.595,198
			c54.404,0,98.506-44.102,98.506-98.499C198.102,45.101,153.999,1,99.595,1z M99.595,184.873c-47.061,0-85.36-38.3-85.36-85.372
			c0-47.075,38.299-85.367,85.36-85.367c47.079,0,85.379,38.292,85.379,85.367C184.975,146.573,146.674,184.873,99.595,184.873z"/>
	</g>
	<path fill="#00B588" d="M122.626,50.465H45.061c-3.063,0-5.55,2.486-5.55,5.542v55.403c0,3.062,2.486,5.535,5.55,5.535h77.565
		c3.048,0,5.534-2.473,5.534-5.535V56.008C128.16,52.952,125.674,50.465,122.626,50.465z M70.989,89.394l12.86,8.746l12.787-8.798
		l22.069,22.069h-69.73L70.989,89.394z M45.061,107.488V71.761L66.319,86.22L45.061,107.488z M101.268,86.146l21.358-14.695v36.039
		L101.268,86.146z M122.626,56.008v8.968l-0.119-0.177L83.819,91.436L45.061,65.072v-9.064H122.626z"/>
	<g>
		<path fill="#00B588" d="M134.169,97c-17.256,0-31.256,13.997-31.256,31.259c0,17.263,14,31.248,31.256,31.248
			c17.271,0,31.255-13.985,31.255-31.248S151.439,97,134.169,97z M148.657,119.609l-14.978,22.879c0,0.016-0.016,0.016-0.016,0.016
			c-0.074,0.118-0.119,0.251-0.207,0.354c-0.146,0.148-0.326,0.238-0.475,0.343c-0.045,0.028-0.073,0.06-0.119,0.089
			c-0.252,0.146-0.504,0.268-0.77,0.325c-0.09,0.015-0.179,0.045-0.267,0.06c-0.224,0.029-0.431,0.029-0.651,0.016
			c-0.162-0.016-0.311-0.043-0.459-0.073c-0.162-0.044-0.311-0.118-0.459-0.179c-0.117-0.06-0.251-0.072-0.369-0.146
			c-0.09-0.061-0.134-0.148-0.207-0.207c-0.029-0.029-0.074-0.045-0.104-0.074l-8.719-8.051c-1.107-1.036-1.168-2.768-0.146-3.861
			c1.021-1.111,2.752-1.185,3.862-0.164l6.305,5.846l13.188-20.154c0.828-1.258,2.529-1.62,3.787-0.799
			C149.131,116.648,149.484,118.352,148.657,119.609z"/>
	</g>
</g>
</svg>
