<?xml version="1.0" encoding="utf-8"?>
<!-- Generator: Adobe Illustrator 16.0.0, SVG Export Plug-In . SVG Version: 6.00 Build 0)  -->
<!DOCTYPE svg PUBLIC "-//W3C//DTD SVG 1.1//EN" "http://www.w3.org/Graphics/SVG/1.1/DTD/svg11.dtd">
<svg version="1.1" id="Layer_1" xmlns="http://www.w3.org/2000/svg" xmlns:xlink="http://www.w3.org/1999/xlink" x="0px" y="0px"
	 width="200px" height="200px" viewBox="0 0 200 200" enable-background="new 0 0 200 200" xml:space="preserve">
<g>
	<g>
		<path fill="#00B588" d="M118.074,80.983L100,44.355l-18.09,36.628l-40.414,5.875l29.252,28.523l-6.911,40.264L100,136.633
			l36.162,19.012l-6.91-40.264l29.252-28.523L118.074,80.983z"/>
	</g>
	<g>
		<path fill="#00B588" d="M100,0C44.771,0,0,44.771,0,100c0,55.221,44.771,100,100,100s100-44.779,100-100
			C200,44.771,155.229,0,100,0z M100,186.666c-47.791,0-86.674-38.874-86.674-86.666c0-47.791,38.883-86.666,86.674-86.666
			c47.776,0,86.658,38.875,86.658,86.666C186.658,147.792,147.776,186.666,100,186.666z"/>
	</g>
</g>
</svg>
