<?xml version="1.0" encoding="utf-8"?>
<!-- Generator: Adobe Illustrator 16.0.0, SVG Export Plug-In . SVG Version: 6.00 Build 0)  -->
<!DOCTYPE svg PUBLIC "-//W3C//DTD SVG 1.1//EN" "http://www.w3.org/Graphics/SVG/1.1/DTD/svg11.dtd">
<svg version="1.1" id="Layer_1" xmlns="http://www.w3.org/2000/svg" xmlns:xlink="http://www.w3.org/1999/xlink" x="0px" y="0px"
	 width="200px" height="200px" viewBox="0 0 200 200" enable-background="new 0 0 200 200" xml:space="preserve">
<g>
	<path fill="#00B588" d="M100-0.002c-55.225,0-100,44.775-100,100c0,55.229,44.775,100.004,100,100.004s100-44.775,100-100.004
		C200,44.773,155.225-0.002,100-0.002z M100,186.655c-47.795,0-86.662-38.867-86.662-86.657c0-47.791,38.867-86.67,86.662-86.67
		s86.662,38.879,86.662,86.67C186.662,147.788,147.795,186.655,100,186.655z M136.906,53.66l-36.654,36.657L67.383,53.66
		c-2.604-2.597-6.819-2.597-9.424,0c-2.596,2.604-2.596,6.827,0,9.432l32.886,36.653l-37.166,37.154
		c-2.597,2.604-2.597,6.836,0,9.44c2.596,2.588,6.836,2.588,9.432,0l36.646-36.662l32.886,36.662c2.604,2.588,6.828,2.588,9.432,0
		c2.597-2.604,2.597-6.836,0-9.44l-32.901-36.649l37.166-37.158c2.588-2.604,2.588-6.828,0-9.432
		C143.733,51.063,139.502,51.063,136.906,53.66z"/>
</g>
</svg>
