<?xml version="1.0" encoding="utf-8"?>
<!-- Generator: Adobe Illustrator 16.0.0, SVG Export Plug-In . SVG Version: 6.00 Build 0)  -->
<!DOCTYPE svg PUBLIC "-//W3C//DTD SVG 1.1//EN" "http://www.w3.org/Graphics/SVG/1.1/DTD/svg11.dtd">
<svg version="1.1" id="Layer_1" xmlns="http://www.w3.org/2000/svg" xmlns:xlink="http://www.w3.org/1999/xlink" x="0px" y="0px"
	 width="200px" height="200px" viewBox="0 0 200 200" enable-background="new 0 0 200 200" xml:space="preserve">
<g>
	<path fill="#EB5A4F" d="M100,0C44.771,0,0,44.779,0,100c0,55.229,44.771,100,100,100s100-44.771,100-100
		C200,44.779,155.229,0,100,0z M100,187.5c-48.25,0-87.5-39.243-87.5-87.5c0-48.242,39.25-87.5,87.5-87.5s87.5,39.258,87.5,87.5
		C187.5,148.257,148.234,187.5,100,187.5z"/>
</g>
<g>
	<path fill="#EB5A4F" d="M89.404,69.805C87.951,53.084,70.508,44.881,69.77,44.544c-0.693-0.327-1.47-0.425-2.215-0.295
		C47.417,47.59,44.389,59.311,44.266,59.797c-0.167,0.686-0.138,1.392,0.076,2.055c24.019,74.525,73.941,88.335,90.347,92.88
		c1.264,0.353,2.308,0.632,3.096,0.892c0.379,0.13,0.776,0.183,1.174,0.183c0.539,0,1.078-0.115,1.576-0.342
		c0.502-0.23,12.359-5.816,15.259-24.036c0.126-0.792,0-1.613-0.364-2.326c-0.261-0.506-6.463-12.309-23.665-16.478
		c-1.2-0.312-2.434,0.007-3.363,0.795c-5.425,4.638-12.921,9.576-16.157,10.086c-21.682-10.599-33.792-30.945-34.249-34.802
		c-0.266-2.17,4.705-9.789,10.42-15.983C89.138,71.936,89.504,70.87,89.404,69.805z"/>
</g>
</svg>
