<?xml version="1.0" encoding="utf-8"?>
<!-- Generator: Adobe Illustrator 16.0.0, SVG Export Plug-In . SVG Version: 6.00 Build 0)  -->
<!DOCTYPE svg PUBLIC "-//W3C//DTD SVG 1.1//EN" "http://www.w3.org/Graphics/SVG/1.1/DTD/svg11.dtd">
<svg version="1.1" id="Layer_1" xmlns="http://www.w3.org/2000/svg" xmlns:xlink="http://www.w3.org/1999/xlink" x="0px" y="0px"
	 width="500px" height="90px" viewBox="0 0 500 90" enable-background="new 0 0 500 90" xml:space="preserve">
<path fill="#00B588" d="M122.756,15.807h-19.599c-0.853,0-1.545,0.766-1.545,1.617v56.414c0,0.852,0.692,1.627,1.545,1.627h19.599
	c16.447,0,29.909-13.385,29.909-29.92C152.665,29.185,139.203,15.807,122.756,15.807z M121.558,67.363h-11.247V23.902h11.247
	c12.532,0,21.645,9.116,21.645,21.643C143.205,58.164,134.09,67.363,121.558,67.363z"/>
<path fill="#00B588" d="M244.074,15.807h-5.456c-0.941,0-1.621,0.766-1.621,1.617v40.305h-0.088L199.926,14.95h-2.13
	c-0.857,0-1.616,0.688-1.616,1.539v51.047h-32.162V55.299h22.749c0.863,0,1.622-0.684,1.622-1.623v-4.771
	c0-0.853-0.759-1.616-1.622-1.616h-22.749V23.819h26.928c0.934,0,1.624-0.764,1.624-1.615v-4.78c0-0.852-0.69-1.621-1.624-1.621
	h-34.081c-0.936,0-1.631,0.77-1.631,1.621v56.414c0,0.852,0.695,1.627,1.631,1.627h40.93h2.892h2.475c0.945,0,1.62-0.775,1.62-1.627
	v-41.5h0.084l36.989,43.975h2.218c0.852,0,1.616-0.684,1.616-1.541V17.424C245.689,16.573,244.926,15.807,244.074,15.807z"/>
<path fill="#00B588" d="M298.723,15.803h-5.62c-0.005,0-0.01,0.001-0.015,0.001h-42.809c-0.937,0-1.616,0.769-1.616,1.619v4.776
	c0,0.853,0.68,1.617,1.616,1.617h13.895v50.019c0,0.854,0.763,1.627,1.615,1.627h5.629c0.853,0,1.615-0.773,1.615-1.627V23.819
	h18.445v50.019c0,0.852,0.771,1.627,1.624,1.627h5.62c0.852,0,1.612-0.775,1.612-1.627V17.424
	C300.335,16.573,299.574,15.803,298.723,15.803z"/>
<path fill="#58595B" d="M326.69,15.807h-19.608c-0.848,0-1.526,0.766-1.526,1.617v56.414c0,0.852,0.679,1.627,1.526,1.627h19.608
	c16.438,0,29.901-13.385,29.901-29.92C356.592,29.185,343.128,15.807,326.69,15.807z M325.486,67.363h-11.239V23.902h11.239
	c12.533,0,21.651,9.116,21.651,21.643C347.143,58.164,338.02,67.363,325.486,67.363z"/>
<path fill="#58595B" d="M396.097,15.803h-34.078c-0.941,0-1.626,0.77-1.626,1.621v56.414c0,0.852,0.685,1.627,1.626,1.627h34.078
	c0.937,0,1.624-0.775,1.624-1.627v-4.691c0-0.846-0.688-1.611-1.624-1.611h-26.933V55.299h22.75c0.862,0,1.63-0.684,1.63-1.623
	v-4.771c0-0.853-0.768-1.616-1.63-1.616h-22.75V23.819h26.933c0.937,0,1.624-0.764,1.624-1.615v-4.78
	C397.721,16.573,397.033,15.803,396.097,15.803z"/>
<path fill="#58595B" d="M420.325,41.118c-7.071-2.899-10.826-5.877-10.826-10.738c0-3.152,2.471-7.671,9.627-7.671
	c4.951,0,10.921,3.92,11.511,4.267c1.189,0.759,2.301,0.252,2.979-0.852c0.683-1.028,1.457-2.216,2.135-3.246
	c0.856-1.27,0.165-2.468-0.515-2.896c-0.855-0.594-7.243-5.028-15.759-5.028c-13.548,0-18.662,9.118-18.662,15.768
	c0,9.892,6.81,14.405,15.496,18.072c8.44,3.485,12.878,6.724,12.878,11.839c0,4.352-3.749,7.92-9.631,7.92
	c-6.562,0-13.123-5.451-13.629-5.873c-0.945-0.771-2.136-0.432-2.907,0.678c-0.761,1.111-1.447,2.391-2.207,3.494
	c-0.856,1.449-0.258,2.049,0.505,2.727c1.364,1.279,7.925,6.736,18.322,6.736c11.074,0,19.004-7.252,19.004-16.107
	C438.646,49.803,430.212,45.127,420.325,41.118z"/>
<path fill="#00B588" d="M463.381,48.047l-6.039,6.158l18.45,20.66c0.177,0.252,0.688,0.602,1.54,0.602h6.822
	c1.789,0,2.212-1.961,1.528-2.812L463.381,48.047z"/>
<path fill="#58595B" d="M470.438,32.918l13.801-14.044c1.186-1.276,0.333-3.07-1.199-3.07h-6.393c-0.679,0-1.277,0.434-1.622,0.852
	l-24.021,24.809V17.848c0-1.103-0.941-2.045-2.051-2.045h-4.937c-1.196,0-2.047,0.942-2.047,2.045v55.566
	c0,1.102,0.851,2.047,2.047,2.047h4.937c1.109,0,2.051-0.945,2.051-2.047V52.648l19.415-19.76L470.438,32.918z"/>
<path fill="#00B588" d="M43.209,66.67c-3.402,0-6.29-2.514-6.771-5.869l-5.051-22.914c-0.025-0.127-0.045-0.249-0.054-0.371
	c-0.193-0.84-0.291-1.68-0.291-2.503c0-6.219,5.06-11.279,11.28-11.279c1.068,0,2.126,0.152,3.149,0.449
	c0.147,0.025,0.292,0.062,0.432,0.111c1.405,0.489,3.964,1.214,5.287,1.214c1.015,0,2.73-0.326,4.724-0.894
	c1.391-0.585,2.856-0.88,4.359-0.88c6.221,0,11.282,5.06,11.282,11.279c0,0.593-0.05,1.197-0.148,1.804l0.002,0.018l-0.073,0.408
	l-5.012,23.218c-0.037,0.287-0.094,0.576-0.174,0.877l-0.054,0.273l-0.069,0.148c-0.93,2.783-3.57,4.699-6.497,4.699
	c-3.276,0-6.127-2.391-6.726-5.592c-0.063-0.23-0.097-0.467-0.101-0.705L52.7,60.018c-0.009-0.135-0.016-0.268-0.016-0.404
	c0-0.064,0.002-0.125,0.006-0.188c-0.012-3.117-0.754-4.209-1.088-4.451c-0.622,0.342-1.548,1.717-1.548,5.117v0.434l-0.057,0.164
	C49.566,64.072,46.651,66.67,43.209,66.67z M36.304,37.281l4.996,22.67l0.014,0.113c0.119,0.955,0.935,1.676,1.895,1.676
	c0.993,0,1.83-0.779,1.904-1.773l0.008-0.135c0.101-8.688,5.191-9.711,5.998-9.818l0,0c0,0,0.152-0.022,0.424-0.022
	c1.016,0,6.077,0.456,6.077,9.505l-0.002,0.08c0,0.021,0,0.043-0.001,0.061l0.024,0.264c0.141,0.926,0.953,1.627,1.887,1.627
	c0.818,0,1.556-0.537,1.815-1.316l0.023-0.09c0.035-0.121,0.054-0.223,0.063-0.311l0.043-0.273l5.028-23.313
	c0.079-0.411,0.12-0.819,0.12-1.21c0-3.5-2.848-6.349-6.35-6.349c-0.874,0-1.729,0.181-2.537,0.537l-0.149,0.065l-0.158,0.045
	c-2.591,0.748-4.69,1.128-6.239,1.128c-2.216,0-5.346-0.965-6.537-1.361l-0.081,0.002l-0.347-0.122
	c-0.616-0.195-1.257-0.294-1.903-0.294c-3.5,0-6.348,2.849-6.348,6.349c0,0.515,0.069,1.032,0.21,1.581l0.146,0.567L36.304,37.281z"
	/>
<path fill="#00B588" d="M51.298,84c-20.562,0-37.29-16.73-37.29-37.29h6.785c0,16.819,13.684,30.505,30.505,30.505
	c17.105,0,30.505-13.18,30.505-30.002h6.785c0,9.941-3.888,19.227-10.948,26.141C70.632,80.219,61.277,84,51.298,84z"/>
<path fill="#00B588" d="M88.588,43.193h-6.785c0-16.821-13.685-30.504-30.505-30.504c-16.821,0-30.505,13.684-30.505,30.504h-6.785
	c0-20.562,16.728-37.29,37.29-37.29C71.859,5.904,88.588,22.631,88.588,43.193z"/>
</svg>
