<?xml version="1.0" encoding="utf-8"?>
<!-- Generator: Adobe Illustrator 16.0.0, SVG Export Plug-In . SVG Version: 6.00 Build 0)  -->
<!DOCTYPE svg PUBLIC "-//W3C//DTD SVG 1.1//EN" "http://www.w3.org/Graphics/SVG/1.1/DTD/svg11.dtd">
<svg version="1.1" id="Layer_1" xmlns="http://www.w3.org/2000/svg" xmlns:xlink="http://www.w3.org/1999/xlink" x="0px" y="0px"
	 width="200px" height="200px" viewBox="0 0 200 200" enable-background="new 0 0 200 200" xml:space="preserve">
<g>
	<path fill="#585858" d="M100,0C44.771,0,0,44.771,0,100c0,55.221,44.771,100,100,100s100-44.779,100-100
		C200,44.771,155.229,0,100,0z M100,186.666c-47.784,0-86.666-38.875-86.666-86.666S52.216,13.334,100,13.334
		S186.666,52.209,186.666,100S147.784,186.666,100,186.666z M136.906,53.658l-36.651,36.659L67.391,53.658
		c-2.607-2.592-6.829-2.592-9.436,0c-2.599,2.606-2.599,6.836,0,9.428l32.888,36.658l-37.17,37.162c-2.599,2.6-2.599,6.829,0,9.428
		c2.607,2.6,6.836,2.6,9.436,0l36.651-36.658l32.88,36.658c2.6,2.6,6.828,2.6,9.428,0c2.599-2.599,2.599-6.828,0-9.428
		l-32.896-36.658l37.162-37.162c2.592-2.592,2.592-6.821,0-9.428C143.735,51.066,139.506,51.066,136.906,53.658z"/>
</g>
</svg>
