<?xml version="1.0" encoding="utf-8"?>
<!-- Generator: Adobe Illustrator 16.0.0, SVG Export Plug-In . SVG Version: 6.00 Build 0)  -->
<!DOCTYPE svg PUBLIC "-//W3C//DTD SVG 1.1//EN" "http://www.w3.org/Graphics/SVG/1.1/DTD/svg11.dtd">
<svg version="1.1" id="Layer_1" xmlns="http://www.w3.org/2000/svg" xmlns:xlink="http://www.w3.org/1999/xlink" x="0px" y="0px"
	 width="200px" height="200px" viewBox="0 0 200 200" enable-background="new 0 0 200 200" xml:space="preserve">
<g>
	<path fill="#595A5C" d="M25.008,174.999h12.497v12.505c0,6.909,5.587,12.496,12.496,12.496h125c6.892,0,12.496-5.587,12.496-12.496
		V37.499c0-6.889-5.604-12.497-12.496-12.497h-12.497V12.505C162.504,5.608,156.908,0,149.999,0H25.008
		c-6.9,0-12.505,5.608-12.505,12.505v149.989C12.503,169.403,18.107,174.999,25.008,174.999z M149.999,162.494H25.008V12.505
		h124.991V162.494z M175.001,37.499v150.005h-125v-12.505h99.998c6.909,0,12.505-5.596,12.505-12.505V37.499H175.001z M62.506,43.76
		c0,3.434,2.798,6.235,6.244,6.235h62.5c3.454,0,6.253-2.802,6.253-6.235c0-3.455-2.799-6.261-6.253-6.261h-62.5
		C65.304,37.499,62.506,40.305,62.506,43.76z M43.757,87.506h87.493c3.454,0,6.253-2.802,6.253-6.252
		c0-3.438-2.799-6.257-6.253-6.257H43.757c-3.454,0-6.252,2.819-6.252,6.257C37.505,84.704,40.303,87.506,43.757,87.506z
		 M43.757,112.508h87.493c3.454,0,6.253-2.807,6.253-6.257c0-3.438-2.799-6.24-6.253-6.24H43.757c-3.454,0-6.252,2.803-6.252,6.24
		C37.505,109.701,40.303,112.508,43.757,112.508z M43.757,137.501h87.493c3.454,0,6.253-2.803,6.253-6.248
		c0-3.446-2.799-6.249-6.253-6.249H43.757c-3.454,0-6.252,2.803-6.252,6.249C37.505,134.698,40.303,137.501,43.757,137.501z"/>
</g>
</svg>
