<?xml version="1.0" encoding="utf-8"?>
<!-- Generator: Adobe Illustrator 16.0.0, SVG Export Plug-In . SVG Version: 6.00 Build 0)  -->
<!DOCTYPE svg PUBLIC "-//W3C//DTD SVG 1.1//EN" "http://www.w3.org/Graphics/SVG/1.1/DTD/svg11.dtd">
<svg version="1.1" id="Layer_1" xmlns="http://www.w3.org/2000/svg" xmlns:xlink="http://www.w3.org/1999/xlink" x="0px" y="0px"
	 width="200px" height="200px" viewBox="0 0 200 200" enable-background="new 0 0 200 200" xml:space="preserve">
<g>
	<path fill="#595A5C" d="M25.007,174.993h12.496v12.505c0,6.904,5.592,12.504,12.495,12.504h125.003
		c6.904,0,12.496-5.6,12.496-12.504V37.499c0-6.896-5.592-12.5-12.496-12.5h-12.496V12.502c0-6.9-5.602-12.504-12.504-12.504H25.007
		c-6.904,0-12.505,5.604-12.505,12.504v149.995C12.502,169.401,18.103,174.993,25.007,174.993z M150.002,162.497H25.007V12.502
		h124.995V162.497z M175.002,37.499v149.999H49.999v-12.505h100.003c6.902,0,12.504-5.592,12.504-12.496V37.499H175.002z
		 M47.846,87.749c0,3.443,2.805,6.243,6.252,6.243h62.498c3.439,0,6.244-2.8,6.244-6.243c0-3.452-2.805-6.253-6.244-6.253H54.098
		C50.651,81.496,47.846,84.297,47.846,87.749z M59.836,130.91V43.417c0-3.452-2.805-6.257-6.278-6.257
		c-3.431,0-6.227,2.805-6.227,6.257v87.493c0,3.452,2.796,6.261,6.227,6.261C57.032,137.171,59.836,134.362,59.836,130.91z
		 M123.156,130.91V43.417c0-3.452-2.805-6.257-6.234-6.257c-3.439,0-6.244,2.805-6.244,6.257v87.493
		c0,3.452,2.805,6.261,6.244,6.261C120.352,137.171,123.156,134.362,123.156,130.91z"/>
</g>
</svg>
