<?xml version="1.0" encoding="utf-8"?>
<!-- Generator: Adobe Illustrator 16.0.0, SVG Export Plug-In . SVG Version: 6.00 Build 0)  -->
<!DOCTYPE svg PUBLIC "-//W3C//DTD SVG 1.1//EN" "http://www.w3.org/Graphics/SVG/1.1/DTD/svg11.dtd">
<svg version="1.1" id="Layer_1" xmlns="http://www.w3.org/2000/svg" xmlns:xlink="http://www.w3.org/1999/xlink" x="0px" y="0px"
	 width="200px" height="200px" viewBox="0 0 200 200" enable-background="new 0 0 200 200" xml:space="preserve">
<g>
	<path fill="#595A5C" d="M99.991,0.009c-25.583,0-51.166,9.765-70.695,29.29c-39.058,39.058-39.058,102.369,0,141.398
		c19.529,19.537,45.112,29.294,70.695,29.294c25.616,0,51.191-9.757,70.719-29.294c39.05-39.05,39.05-102.369,0-141.398
		C151.182,9.773,125.606,0.009,99.991,0.009z M161.245,161.232c-16.345,16.36-38.096,25.373-61.254,25.373
		c-23.117,0-44.869-9.013-61.229-25.373c-16.353-16.36-25.365-38.104-25.365-61.23c0-23.142,9.013-44.882,25.365-61.246
		c16.36-16.356,38.112-25.373,61.229-25.373c23.159,0,44.894,9.017,61.254,25.373c16.353,16.345,25.341,38.112,25.341,61.246
		C186.586,123.12,177.598,144.872,161.245,161.232z M139.735,92.865h-33.48V45.886c0-3.687-2.999-6.689-6.692-6.689
		c-3.694,0-6.693,3.003-6.693,6.689v53.619v0.028v0.017c0,3.698,2.999,6.692,6.693,6.692h40.172c3.702,0,6.709-2.994,6.709-6.692
		C146.444,95.863,143.438,92.865,139.735,92.865z"/>
</g>
</svg>
