<?xml version="1.0" encoding="utf-8"?>
<!-- Generator: Adobe Illustrator 16.0.0, SVG Export Plug-In . SVG Version: 6.00 Build 0)  -->
<!DOCTYPE svg PUBLIC "-//W3C//DTD SVG 1.1//EN" "http://www.w3.org/Graphics/SVG/1.1/DTD/svg11.dtd">
<svg version="1.1" id="Layer_1" xmlns="http://www.w3.org/2000/svg" xmlns:xlink="http://www.w3.org/1999/xlink" x="0px" y="0px"
	 width="200px" height="200px" viewBox="0 0 200 200" enable-background="new 0 0 200 200" xml:space="preserve">
<g>
	<g>
		<path fill="#00B588" d="M124.107,58.928c0-13.218-11.476-24.692-24.69-24.692c-13.219,0-24.692,11.474-24.692,24.692
			c0,13.218,11.474,24.692,24.692,24.692C112.637,83.621,124.107,72.146,124.107,58.928z M99.417,91.852
			c-21.63,0-41.154,23.333-41.154,52.33c0,28.998,82.305,28.998,82.305,0C140.568,115.186,121.045,91.852,99.417,91.852z"/>
	</g>
	<g>
		<path fill="#FFFFFF" d="M105.721,121.652l-5.699-11.547l-5.699,11.547l-12.742,1.853l9.22,8.986l-2.176,12.69l11.397-5.992
			l11.398,5.992l-2.177-12.69l9.222-8.986L105.721,121.652z"/>
	</g>
	<g>
		<path fill="#00B588" d="M99.419,5c52.429,0,95.083,42.654,95.083,95.082c0,52.432-42.654,95.087-95.083,95.087
			c-52.431,0-95.086-42.655-95.086-95.087C4.333,47.654,46.988,5,99.419,5 M99.419,2C45.248,2,1.333,45.913,1.333,100.082
			c0,54.172,43.915,98.087,98.086,98.087c54.168,0,98.083-43.915,98.083-98.087C197.502,45.913,153.587,2,99.419,2L99.419,2z"/>
	</g>
</g>
</svg>
