<?xml version="1.0" encoding="utf-8"?>
<!-- Generator: Adobe Illustrator 16.0.0, SVG Export Plug-In . SVG Version: 6.00 Build 0)  -->
<!DOCTYPE svg PUBLIC "-//W3C//DTD SVG 1.1//EN" "http://www.w3.org/Graphics/SVG/1.1/DTD/svg11.dtd">
<svg version="1.1" id="Layer_1" xmlns="http://www.w3.org/2000/svg" xmlns:xlink="http://www.w3.org/1999/xlink" x="0px" y="0px"
	 width="200px" height="200px" viewBox="0 0 200 200" enable-background="new 0 0 200 200" xml:space="preserve">
<g>
	<path fill="#595A5C" d="M100-0.002c-55.241,0-100,44.771-100,100c0,55.229,44.759,100.004,100,100.004
		c55.225,0,100-44.775,100-100.004C200,44.769,155.225-0.002,100-0.002z M100,186.663c-47.786,0-86.67-38.883-86.67-86.665
		c0-47.787,38.884-86.67,86.67-86.67c47.771,0,86.653,38.883,86.653,86.67C186.653,147.78,147.771,186.663,100,186.663z
		 M111.426,53.33c12.077,0,21.907,8.973,21.907,19.999c0,3.679,2.979,6.665,6.657,6.665s6.673-2.986,6.673-6.665
		c0-18.384-15.82-33.329-35.237-33.329h-4.769v-6.669c0-3.679-2.979-6.665-6.657-6.665c-3.694,0-6.657,2.986-6.657,6.665V40h-4.769
		c-19.434,0-35.237,14.945-35.237,33.329s15.804,33.338,35.237,33.338h4.769v39.998h-4.769c-12.093,0-21.907-8.968-21.907-19.999
		c0-3.683-2.995-6.669-6.674-6.669c-3.678,0-6.656,2.986-6.656,6.669c0,18.388,15.804,33.329,35.237,33.329h4.769v6.673
		c0,3.679,2.963,6.657,6.657,6.657c3.679,0,6.657-2.979,6.657-6.657v-6.673h4.769c19.417,0,35.237-14.941,35.237-33.329
		s-15.82-33.338-35.237-33.338h-4.769V53.33H111.426z M111.426,106.667c12.077,0,21.907,8.972,21.907,19.999
		c0,11.031-9.83,19.999-21.907,19.999h-4.769v-39.998H111.426z M93.343,93.328h-4.769c-12.093,0-21.907-8.972-21.907-19.999
		c0-11.026,9.814-19.999,21.907-19.999h4.769V93.328z"/>
</g>
</svg>
