<?xml version="1.0" encoding="utf-8"?>
<!-- Generator: Adobe Illustrator 16.0.0, SVG Export Plug-In . SVG Version: 6.00 Build 0)  -->
<!DOCTYPE svg PUBLIC "-//W3C//DTD SVG 1.1//EN" "http://www.w3.org/Graphics/SVG/1.1/DTD/svg11.dtd">
<svg version="1.1" id="Layer_1" xmlns="http://www.w3.org/2000/svg" xmlns:xlink="http://www.w3.org/1999/xlink" x="0px" y="0px"
	 width="200px" height="200px" viewBox="0 0 200 200" enable-background="new 0 0 200 200" xml:space="preserve">
<g>
	<path fill="#595A5C" d="M37.502,200.002h124.996c6.896,0,12.498-5.617,12.498-12.498V12.496c0-6.897-5.602-12.498-12.498-12.498
		H37.502c-6.881,0-12.498,5.601-12.498,12.498v175.008C25.004,194.385,30.621,200.002,37.502,200.002z M37.502,12.496h124.996
		v175.008H37.502V12.496z M137.502,24.998H62.498C55.617,24.998,50,30.594,50,37.5v12.498c0,6.9,5.617,12.497,12.498,12.497h75.004
		c6.896,0,12.498-5.597,12.498-12.497V37.5C150,30.594,144.398,24.998,137.502,24.998z M137.502,49.998H62.498V37.5h75.004V49.998z
		 M50,87.5c0,6.896,5.617,12.498,12.498,12.498c6.913,0,12.498-5.602,12.498-12.498c0-6.906-5.585-12.502-12.498-12.502
		C55.617,74.998,50,80.594,50,87.5z M50,124.998c0,6.9,5.617,12.497,12.498,12.497c6.913,0,12.498-5.597,12.498-12.497
		c0-6.901-5.585-12.503-12.498-12.503C55.617,112.495,50,118.097,50,124.998z M50,162.491c0,6.914,5.617,12.507,12.498,12.507
		c6.913,0,12.498-5.593,12.498-12.507c0-6.897-5.585-12.498-12.498-12.498C55.617,149.993,50,155.594,50,162.491z M87.493,87.5
		c0,6.896,5.618,12.498,12.515,12.498c6.914,0,12.498-5.602,12.498-12.498c0-6.906-5.584-12.502-12.498-12.502
		C93.111,74.998,87.493,80.594,87.493,87.5z M87.493,124.998c0,6.9,5.618,12.497,12.515,12.497c6.914,0,12.498-5.597,12.498-12.497
		c0-6.901-5.584-12.503-12.498-12.503C93.111,112.495,87.493,118.097,87.493,124.998z M87.493,162.491
		c0,6.914,5.618,12.507,12.515,12.507c6.914,0,12.498-5.593,12.498-12.507c0-6.897-5.584-12.498-12.498-12.498
		C93.111,149.993,87.493,155.594,87.493,162.491z M125.004,87.5c0,6.896,5.617,12.498,12.498,12.498
		c6.914,0,12.498-5.602,12.498-12.498c0-6.906-5.584-12.502-12.498-12.502C130.621,74.998,125.004,80.594,125.004,87.5z
		 M125.004,124.998c0,6.9,5.617,12.497,12.498,12.497c6.914,0,12.498-5.597,12.498-12.497c0-6.901-5.584-12.503-12.498-12.503
		C130.621,112.495,125.004,118.097,125.004,124.998z M125.004,162.491c0,6.914,5.617,12.507,12.498,12.507
		c6.914,0,12.498-5.593,12.498-12.507c0-6.897-5.584-12.498-12.498-12.498C130.621,149.993,125.004,155.594,125.004,162.491z"/>
</g>
</svg>
